<?xml version="1.0" standalone="no"?>
<!DOCTYPE svg PUBLIC "-//W3C//DTD SVG 20010904//EN"
 "http://www.w3.org/TR/2001/REC-SVG-20010904/DTD/svg10.dtd">
<svg version="1.0" xmlns="http://www.w3.org/2000/svg"
 width="1583.000000pt" height="775.000000pt" viewBox="0 0 1583.000000 775.000000"
 preserveAspectRatio="xMidYMid meet">

<g transform="translate(0.000000,775.000000) scale(0.100000,-0.100000)"
fill="#000000" stroke="none">
<path d="M0 3870 l0 -3870 7915 0 7915 0 0 3870 0 3870 -7915 0 -7915 0 0
-3870z m1940 3310 l0 -250 -250 0 -250 0 0 250 0 250 250 0 250 0 0 -250z
m12450 0 l0 -190 -580 0 -580 0 0 190 0 190 580 0 580 0 0 -190z m-12304 131
c-32 -34 -32 -41 -1 -75 30 -32 31 -36 6 -36 -11 0 -29 12 -40 26 -13 16 -21
21 -21 12 0 -8 5 -19 12 -26 9 -9 5 -12 -17 -12 l-30 0 0 69 0 70 59 0 58 -1
-26 -27z m136 12 c23 -20 24 -80 1 -105 -25 -27 -79 -24 -99 7 -20 30 -12 89
14 104 26 16 63 13 84 -6z m126 5 c16 -16 15 -38 -4 -59 -14 -16 -14 -19 5
-38 26 -26 26 -31 2 -31 -11 0 -27 10 -36 23 l-17 22 7 -22 c6 -20 3 -23 -25
-23 -22 0 -29 4 -24 12 10 16 11 108 2 108 -5 0 -8 5 -8 10 0 14 84 12 98 -2z
m87 -58 c0 -68 -1 -70 -25 -70 -24 0 -25 2 -25 70 0 68 1 70 25 70 24 0 25 -2
25 -70z m102 55 c8 -23 -2 -28 -26 -14 -11 7 -24 10 -28 5 -4 -5 0 -13 11 -20
54 -33 61 -42 48 -70 -10 -22 -18 -26 -52 -26 -33 0 -40 3 -40 20 0 23 13 26
30 6 13 -16 40 -11 40 8 0 7 -16 20 -35 29 -36 17 -45 43 -23 65 17 17 67 15
75 -3z m107 -21 c9 -3 16 -17 16 -29 0 -19 -6 -24 -32 -27 -36 -3 -36 -23 0
-23 12 1 22 -4 22 -9 0 -26 31 25 32 52 1 27 5 31 37 35 55 6 61 1 59 -54 -2
-46 -4 -49 -30 -49 -26 0 -26 1 -12 28 18 35 18 52 0 52 -19 0 -27 -14 -28
-49 l-1 -30 -69 0 c-51 0 -70 4 -74 14 -10 24 11 69 37 82 29 15 24 14 43 7z
m230 0 c9 -3 16 -17 16 -29 0 -19 -6 -24 -32 -27 -17 -2 -34 -9 -36 -17 -3
-10 3 -12 27 -9 18 3 31 0 31 -6 1 -24 30 30 30 55 0 23 5 27 36 31 23 3 38 0
41 -9 4 -10 9 -10 26 1 12 7 36 12 52 11 17 -1 40 -3 51 -4 17 -1 20 -6 17
-28 -4 -27 -4 -27 11 -9 8 10 13 23 10 27 -3 5 6 9 20 9 26 0 25 -1 -22 -66
-55 -78 -78 -96 -92 -74 -7 12 -12 12 -22 2 -16 -16 -53 -16 -66 1 -7 8 -6 19
3 37 21 37 18 67 -5 73 -24 6 -31 -3 -32 -42 l-1 -30 -69 0 c-78 0 -89 9 -68
60 11 25 23 36 57 48 1 1 8 -2 17 -5z m8687 -57 c-13 -13 -26 -3 -16 12 3 6
11 8 17 5 6 -4 6 -10 -1 -17z m949 3 c0 -12 6 -20 13 -19 26 3 36 -2 42 -21
10 -31 -12 -60 -45 -60 -29 0 -30 1 -30 50 0 33 -4 50 -12 50 -9 0 -8 4 2 10
23 15 30 12 30 -10z m-2138 -15 c-3 -21 0 -25 18 -25 18 0 21 4 18 25 -4 18
-1 25 11 25 13 0 16 -11 16 -55 0 -44 -3 -55 -16 -55 -12 0 -15 7 -11 25 3 21
0 25 -18 25 -18 0 -21 -4 -18 -25 4 -20 1 -25 -16 -25 -19 0 -21 6 -21 55 0
49 2 55 21 55 17 0 20 -5 16 -25z m978 10 c16 -19 6 -45 -21 -52 -14 -4 -19
-12 -16 -24 4 -14 0 -19 -16 -19 -20 0 -22 5 -22 55 0 55 0 55 31 55 17 0 37
-7 44 -15z m1097 -40 l21 -55 -24 0 c-17 0 -22 4 -18 15 4 10 0 15 -11 15 -11
0 -15 -5 -11 -15 4 -11 -2 -15 -22 -15 -15 0 -22 4 -16 8 6 4 17 25 24 47 7
22 15 43 17 48 10 17 21 4 40 -48z m-667 35 c0 -5 8 -11 18 -11 16 -1 16 -2 0
-6 -12 -3 -18 -14 -18 -33 0 -27 2 -29 25 -20 15 6 26 6 30 0 8 -12 25 -13 25
-1 0 5 -9 11 -20 14 -25 6 -27 43 -2 49 22 6 42 -1 42 -14 0 -5 -10 -7 -22 -3
-23 6 -23 6 1 -13 40 -33 22 -52 -46 -49 l-58 2 -5 35 c-4 19 -4 41 -2 48 5
14 32 16 32 2z m1020 0 c0 -5 8 -11 18 -11 16 -1 16 -2 0 -6 -12 -3 -18 -14
-18 -33 0 -22 4 -28 15 -24 8 4 15 1 15 -5 0 -6 -11 -11 -25 -11 -17 0 -26 7
-30 23 -12 55 -9 77 10 77 8 0 15 -4 15 -10z m-2272 -53 c-3 -28 -7 -32 -35
-35 -28 -3 -33 0 -39 24 -6 21 -2 31 15 46 33 26 63 8 59 -35z m149 40 c2 -3
8 -22 13 -41 l8 -36 -47 0 c-47 0 -47 0 -43 30 3 23 1 30 -13 30 -14 0 -16 -7
-13 -30 3 -23 1 -30 -11 -30 -12 0 -16 10 -16 37 0 32 4 39 25 43 29 6 89 4
97 -3z m103 -22 c0 -9 -10 -15 -26 -15 -16 0 -24 -5 -21 -12 2 -7 14 -12 27
-10 14 2 20 0 16 -7 -4 -6 -20 -11 -36 -11 -24 0 -31 5 -36 27 -9 35 27 68 57
53 10 -6 19 -17 19 -25z m656 6 c-4 -5 -13 -8 -21 -4 -11 4 -15 -2 -15 -20 0
-14 6 -28 13 -30 6 -3 1 -6 -13 -6 -22 -1 -25 3 -25 36 0 32 4 39 25 44 28 6
46 -4 36 -20z m82 -24 c-3 -28 -7 -32 -35 -35 -24 -2 -33 1 -38 17 -14 46 18
78 58 59 13 -7 17 -18 15 -41z m126 37 c23 -22 20 -34 -10 -34 -16 0 -24 -5
-21 -12 2 -7 11 -12 21 -10 9 2 16 -2 16 -8 0 -5 -13 -10 -29 -10 -21 0 -32 6
-36 20 -9 27 2 58 23 63 9 3 18 5 19 6 1 0 9 -6 17 -15z m90 -15 c-4 -6 -11
-6 -20 2 -11 9 -15 8 -20 -5 -8 -22 13 -46 34 -39 13 5 14 3 6 -6 -7 -7 -22
-11 -35 -9 -31 4 -40 55 -13 75 19 14 59 -1 48 -18z m922 -5 c8 -32 -13 -56
-45 -52 -20 2 -27 9 -29 33 -6 53 61 71 74 19z m-1098 -31 c-2 -47 -6 -58 -20
-58 -10 0 -18 5 -17 10 1 6 5 9 11 7 6 -2 9 17 6 48 -2 36 1 50 10 50 10 0 12
-15 10 -57z m1142 28 c0 -17 5 -33 11 -37 8 -5 10 4 7 30 -3 29 -1 36 13 36
12 0 18 -11 21 -40 l4 -40 -38 0 c-33 0 -38 3 -44 28 -3 15 -7 33 -10 40 -2 7
5 12 16 12 15 0 20 -7 20 -29z m-10646 -67 c9 -3 16 -13 16 -22 0 -13 -2 -13
-14 3 -8 11 -19 16 -30 12 -26 -10 -18 -32 19 -50 19 -9 35 -23 35 -31 0 -43
-82 -63 -88 -21 -3 19 -2 19 12 2 17 -22 49 -19 54 5 2 11 -8 23 -27 33 -55
28 -34 91 23 69z m140 -10 c9 -9 16 -32 16 -54 0 -43 -20 -70 -52 -70 -33 0
-58 29 -58 67 0 58 58 94 94 57z m89 9 c-9 -3 -13 -26 -13 -64 0 -56 1 -59 24
-59 15 0 26 7 29 18 4 13 5 11 6 -5 1 -20 -4 -23 -41 -23 l-43 0 3 70 c3 64 5
70 25 69 12 0 16 -3 10 -6z m102 -55 c0 -61 1 -63 25 -63 24 0 25 3 28 63 2
50 6 62 19 62 13 0 14 -3 5 -12 -7 -7 -12 -33 -12 -58 0 -51 -13 -70 -46 -70
-31 0 -41 18 -46 83 -4 47 -2 57 11 57 13 0 16 -12 16 -62z m204 40 c0 -13 -3
-17 -6 -10 -2 6 -13 12 -24 12 -16 0 -19 -7 -19 -54 0 -34 5 -56 13 -59 6 -3
-1 -6 -17 -6 -23 -1 -27 2 -18 11 7 7 12 34 12 60 0 45 -2 48 -25 48 -14 0
-25 5 -25 10 0 6 25 10 55 10 51 0 55 -2 54 -22z m63 10 c-16 -16 -16 -115 1
-121 6 -3 -1 -6 -17 -6 -24 -1 -27 1 -16 14 8 10 11 35 8 70 -4 50 -3 55 16
55 15 0 17 -3 8 -12z m122 -4 c9 -9 16 -32 16 -54 0 -43 -20 -70 -52 -70 -33
0 -58 29 -58 67 0 58 58 94 94 57z m127 -63 c11 -13 19 -33 17 -45 -2 -17 -10
-10 -38 34 -37 57 -46 53 -38 -16 2 -20 0 -34 -7 -34 -6 0 -9 26 -7 72 l4 73
24 -30 c14 -17 34 -41 45 -54z m34 69 c-3 -5 -10 -10 -16 -10 -5 0 -9 5 -9 10
0 6 7 10 16 10 8 0 12 -4 9 -10z m94 -3 c6 -8 8 -17 4 -20 -3 -4 -12 1 -19 11
-12 16 -14 16 -29 1 -15 -15 -14 -18 19 -37 51 -30 45 -82 -10 -82 -24 0 -50
25 -36 34 6 3 13 -1 16 -10 8 -20 50 -15 54 6 2 10 -11 23 -33 33 -39 18 -47
49 -17 66 23 14 38 13 51 -2z m3815 -3027 c23 -8 26 -15 26 -55 0 -44 0 -44
-30 -39 -34 7 -60 -9 -60 -37 0 -15 8 -19 40 -19 l40 0 0 -50 0 -50 -40 0 -40
0 0 -120 0 -120 -70 0 -70 0 0 120 c0 113 -1 120 -20 120 -17 0 -20 7 -20 50
0 42 3 50 19 50 14 0 20 10 24 40 7 53 31 88 70 105 38 17 96 19 131 5z
m-2909 -55 l0 -50 -75 0 -75 0 -3 29 c-2 15 -1 39 3 53 5 23 9 24 78 21 l72
-3 0 -50z m1415 -26 c0 -73 2 -80 18 -74 33 14 110 17 145 6 61 -21 71 -48 75
-203 l4 -138 -71 0 -71 0 0 109 c0 86 -3 113 -16 125 -19 19 -25 20 -59 4 -25
-11 -25 -13 -25 -125 l0 -113 -70 0 -70 0 0 245 0 245 70 0 70 0 0 -81z m982
-116 l3 -198 28 2 c26 2 27 0 27 -43 0 -39 -3 -46 -27 -55 -47 -18 -121 -6
-151 25 l-27 26 -4 205 c-1 113 0 212 3 220 4 11 23 15 75 15 l71 0 2 -197z
m228 142 l0 -56 -72 3 -73 3 -3 39 c-5 62 -1 66 78 66 l70 0 0 -55z m1280 -26
c0 -73 2 -80 18 -74 33 14 110 17 145 6 61 -21 71 -48 75 -203 l4 -138 -71 0
-71 0 0 109 c0 86 -3 113 -16 125 -18 19 -24 19 -58 6 -26 -9 -26 -10 -26
-125 l0 -115 -70 0 -70 0 0 245 0 245 70 0 70 0 0 -81z m2940 -164 l0 -245
-65 0 c-36 0 -65 4 -65 9 0 6 -16 3 -35 -5 -79 -33 -179 -4 -209 61 -25 52
-19 172 10 211 46 63 125 89 193 66 l31 -11 0 80 0 79 70 0 70 0 0 -245z m968
193 l-3 -53 -72 -3 -73 -3 0 56 0 55 76 0 75 0 -3 -52z m-8200 -150 l2 -178
100 0 100 0 0 -55 0 -55 -175 0 -175 0 0 228 c0 126 3 232 7 236 4 4 37 6 73
4 l65 -3 3 -177z m1542 102 l0 -50 41 0 40 0 -3 -47 c-3 -48 -3 -48 -40 -51
l-38 -3 0 -64 c0 -72 16 -91 65 -79 24 6 25 4 25 -40 0 -41 -3 -48 -26 -56
-36 -14 -99 -12 -138 4 -46 19 -66 66 -66 160 0 69 -2 76 -20 76 -17 0 -20 7
-20 50 0 43 3 50 19 50 16 0 20 8 23 37 3 35 6 38 48 49 85 23 90 21 90 -36z
m2490 0 l0 -50 41 0 40 0 -3 -47 c-3 -48 -3 -48 -40 -51 l-38 -3 0 -64 c0 -72
16 -91 65 -79 24 6 25 4 25 -40 0 -41 -3 -48 -26 -56 -38 -15 -102 -12 -139 6
-47 22 -65 66 -65 158 0 69 -2 76 -20 76 -17 0 -20 7 -20 50 0 43 3 50 19 50
16 0 20 8 23 37 3 35 6 38 48 49 85 23 90 21 90 -36z m1110 0 l0 -50 41 0 c33
0 40 -3 35 -16 -3 -9 -6 -31 -6 -50 0 -32 -2 -34 -35 -34 l-35 0 0 -69 c0 -61
3 -70 20 -76 11 -3 29 -3 40 0 18 6 20 2 20 -44 l0 -50 -46 -7 c-69 -10 -115
1 -146 36 -24 26 -28 39 -29 98 -1 37 0 77 1 90 1 17 -4 22 -24 22 -24 0 -26
3 -26 49 0 44 3 50 23 53 17 2 23 10 25 39 3 34 6 36 50 46 91 20 92 19 92
-37z m-4033 -60 c58 -26 83 -69 83 -142 l0 -58 -116 0 c-88 0 -115 -3 -112
-12 9 -27 83 -43 147 -32 l61 10 0 -43 c0 -38 -3 -43 -27 -50 -16 -5 -64 -8
-108 -8 -67 0 -87 4 -124 25 -57 32 -81 78 -81 153 0 63 14 99 53 135 48 45
152 55 224 22z m1253 -2 c55 -28 80 -73 80 -145 l0 -53 -115 0 c-123 0 -143
-9 -78 -37 37 -15 114 -14 156 2 15 6 17 1 17 -39 0 -41 -3 -46 -27 -53 -16
-5 -64 -8 -108 -8 -67 0 -87 4 -124 25 -57 32 -81 78 -81 153 0 63 14 99 53
135 50 47 155 56 227 20z m1240 0 c55 -29 80 -74 80 -145 l0 -53 -116 0 c-88
0 -115 -3 -112 -12 9 -27 83 -43 147 -32 l61 10 0 -43 c0 -38 -3 -43 -27 -50
-16 -5 -64 -8 -108 -8 -67 0 -87 4 -124 25 -57 32 -81 78 -81 153 0 81 35 140
100 166 46 18 132 13 180 -11z m1250 0 c67 -34 80 -68 80 -210 l0 -118 -65 0
c-36 0 -65 4 -65 9 0 5 -17 3 -37 -5 -106 -37 -203 8 -203 94 0 80 59 122 170
122 62 0 76 11 38 31 -21 12 -116 8 -150 -6 -16 -6 -18 -1 -18 38 0 46 0 46
43 55 79 18 159 14 207 -10z m1280 0 c55 -29 81 -64 90 -124 13 -86 -14 -150
-81 -189 -27 -16 -52 -20 -119 -20 -94 0 -135 16 -174 68 -30 41 -30 173 0
214 33 46 98 73 174 73 48 0 77 -6 110 -22z m1416 1 c58 -28 84 -71 84 -143
l0 -56 -116 0 c-88 0 -115 -3 -112 -12 9 -27 83 -43 147 -32 l61 10 0 -43 c0
-38 -3 -43 -27 -50 -16 -5 -64 -8 -108 -8 -67 0 -87 4 -124 25 -57 32 -81 78
-81 153 0 81 35 140 100 166 44 17 130 13 176 -10z m403 7 c6 -4 11 -27 11
-51 l0 -43 -75 5 c-92 7 -101 -9 -18 -33 99 -29 136 -90 98 -163 -21 -41 -66
-56 -170 -56 -116 1 -135 11 -135 72 0 42 1 45 23 39 12 -4 52 -10 90 -13 87
-7 88 8 2 37 -101 34 -136 90 -100 160 9 17 17 30 18 30 1 0 20 7 42 15 40 15
190 16 214 1z m569 -38 l-3 -52 -55 -11 -55 -10 -3 -112 -3 -113 -69 0 -70 0
0 170 0 170 69 0 c38 0 71 -4 73 -10 2 -6 19 -4 43 5 71 25 76 22 73 -37z
m301 25 c48 -36 71 -81 71 -139 l0 -54 -115 0 c-63 0 -115 -4 -115 -9 0 -31
111 -48 183 -28 27 7 27 7 27 -37 l0 -44 -51 -12 c-105 -25 -222 5 -265 68
-63 93 -19 240 82 272 47 15 152 5 183 -17z m-8433 -145 c-3 -90 -5 -166 -6
-170 0 -5 -31 -8 -70 -8 l-70 0 0 120 c0 113 -1 120 -20 120 -17 0 -20 7 -20
43 0 24 3 47 7 50 3 4 46 7 96 7 l89 0 -6 -162z m209 72 c16 -49 31 -87 34
-84 3 3 17 42 31 87 l26 82 72 3 c40 2 72 -1 72 -5 0 -4 -28 -80 -63 -168
l-63 -160 -75 -3 -75 -3 -47 118 c-25 65 -55 142 -66 171 l-21 52 73 0 73 0
29 -90z m2415 -80 l0 -170 -70 0 -70 0 0 120 0 120 -26 0 c-20 0 -25 4 -20 16
3 9 6 31 6 50 l0 34 90 0 90 0 0 -170z m2565 73 l38 -96 36 94 36 94 73 3 c39
2 72 0 72 -5 0 -9 -127 -318 -146 -354 -7 -15 -27 -41 -44 -58 -31 -30 -34
-31 -121 -31 l-89 0 0 44 0 43 40 -1 c25 0 46 6 56 16 15 15 12 26 -46 150
-34 73 -69 148 -76 166 l-14 32 73 0 74 0 38 -97z m835 -18 c0 -103 2 -115 19
-125 13 -7 28 -7 45 0 26 9 26 10 26 125 l0 115 74 0 75 0 0 -170 1 -170 -70
0 c-38 0 -70 4 -70 9 0 6 -16 3 -35 -5 -73 -30 -166 -8 -196 48 -8 14 -15 75
-17 156 l-4 132 76 0 76 0 0 -115z m1790 -55 l0 -170 -70 0 -70 0 0 120 0 120
-26 0 c-25 0 -26 2 -20 38 3 20 6 43 6 50 0 9 25 12 90 12 l90 0 0 -170z
m-4960 -2400 c148 -41 217 -232 131 -361 -146 -217 -476 -85 -437 175 21 136
167 225 306 186z m600 0 c148 -41 217 -232 131 -361 -146 -217 -476 -85 -437
175 21 136 167 225 306 186z m600 0 c148 -41 217 -232 131 -361 -146 -217
-476 -85 -437 175 21 136 167 225 306 186z m656 -26 c30 -18 60 -48 79 -78 27
-44 30 -58 30 -126 0 -68 -3 -82 -30 -126 -19 -30 -49 -60 -79 -79 -44 -27
-58 -30 -126 -30 -68 0 -82 3 -126 30 -159 99 -150 335 18 419 74 38 163 34
234 -10z m544 26 c148 -41 217 -232 131 -361 -146 -217 -476 -85 -437 175 21
136 167 225 306 186z"/>
<path d="M1641 7236 c-91 -91 -122 -128 -119 -144 2 -16 30 8 141 124 175 182
157 199 -22 20z"/>
<path d="M1668 7204 c-86 -90 -148 -164 -148 -175 0 -16 7 -19 50 -19 l50 0 0
43 c0 31 6 49 19 61 19 17 21 15 68 -43 l48 -61 58 0 58 0 -63 80 c-35 45 -68
88 -75 98 -10 15 -2 28 58 95 61 67 68 77 47 76 -16 0 -65 -45 -170 -155z"/>
<path d="M13240 7180 l0 -180 570 0 570 0 0 180 0 180 -570 0 -570 0 0 -180z
m214 81 c10 -11 15 -25 11 -31 -10 -16 25 -51 45 -45 9 3 25 -4 35 -15 17 -19
17 -22 3 -36 -22 -22 -63 -9 -104 34 -40 41 -52 76 -34 97 16 20 23 19 44 -4z
m284 -38 c2 -7 -3 -13 -12 -13 -9 0 -16 5 -16 10 0 18 -19 11 -31 -11 -8 -16
-8 -28 0 -45 9 -20 16 -23 37 -18 19 5 25 4 20 -5 -11 -17 -73 -14 -80 5 -10
26 -7 69 6 82 16 16 70 12 76 -5z m470 -14 c15 -1 15 -2 0 -6 -22 -6 -25 -53
-3 -53 8 0 15 -4 15 -10 0 -5 -11 -10 -25 -10 -22 0 -25 4 -25 35 0 34 -13 47
-23 23 -4 -10 -8 -9 -16 2 -9 12 -11 12 -17 -3 -10 -28 2 -46 27 -40 15 4 20
3 15 -5 -4 -7 -20 -12 -36 -12 -24 0 -31 5 -36 27 -9 33 24 64 57 56 15 -4 25
0 32 13 10 18 12 18 15 2 2 -10 11 -19 20 -19z m-232 7 c9 -9 10 -16 3 -18 -6
-2 -9 -16 -7 -32 l3 -28 24 21 c13 12 28 21 33 21 4 0 8 5 8 11 0 8 -4 9 -13
0 -13 -10 -27 -6 -27 10 0 13 39 17 53 5 8 -6 17 -26 19 -44 l5 -32 -66 2 -66
3 -5 35 c-9 57 5 76 36 46z m-158 -49 c-3 -28 -7 -32 -35 -35 -28 -3 -33 0
-39 24 -6 21 -2 31 15 46 33 26 63 8 59 -35z m104 -2 l4 -35 -46 0 -45 0 0 37
c0 32 4 39 25 44 37 8 57 -6 62 -46z"/>
<path d="M14025 7150 c3 -5 8 -10 11 -10 2 0 4 5 4 10 0 6 -5 10 -11 10 -5 0
-7 -4 -4 -10z"/>
<path d="M13774 7186 c-8 -21 3 -49 16 -41 5 3 10 15 10 25 0 25 -18 36 -26
16z"/>
<path d="M13862 7168 c5 -32 28 -35 28 -4 0 17 -5 26 -16 26 -10 0 -14 -7 -12
-22z"/>
<path d="M2034 7316 c-10 -25 0 -38 13 -17 8 13 9 22 3 26 -6 4 -13 -1 -16 -9z"/>
<path d="M2150 7295 c-13 -34 3 -75 30 -75 23 0 36 36 26 75 -4 16 -13 25 -26
25 -13 0 -24 -10 -30 -25z"/>
<path d="M2300 7300 c0 -13 5 -20 13 -17 6 2 12 10 12 17 0 7 -6 15 -12 18 -8
2 -13 -5 -13 -18z"/>
<path d="M2610 7275 c-10 -12 -10 -15 4 -15 9 0 16 7 16 15 0 8 -2 15 -4 15
-2 0 -9 -7 -16 -15z"/>
<path d="M2840 7275 c-10 -12 -10 -15 4 -15 9 0 16 7 16 15 0 8 -2 15 -4 15
-2 0 -9 -7 -16 -15z"/>
<path d="M3025 7277 c-4 -10 -5 -21 -1 -24 10 -10 18 4 13 24 -4 17 -4 17 -12
0z"/>
<path d="M3070 7272 c0 -22 -16 -38 -45 -45 -15 -4 -13 -5 8 -6 19 -1 27 -6
27 -20 0 -10 6 -21 14 -24 21 -8 37 33 28 72 -8 38 -32 55 -32 23z"/>
<path d="M2997 7179 c8 -8 16 -8 30 0 16 9 14 10 -11 11 -22 0 -27 -3 -19 -11z"/>
<path d="M12514 7206 c-8 -21 3 -49 16 -41 5 3 10 15 10 25 0 25 -18 36 -26
16z"/>
<path d="M11300 7225 c0 -17 5 -25 13 -22 6 2 12 12 12 22 0 10 -6 20 -12 23
-8 2 -13 -6 -13 -23z"/>
<path d="M10484 7206 c-8 -21 3 -49 16 -41 5 3 10 15 10 25 0 25 -18 36 -26
16z"/>
<path d="M10640 7185 c0 -14 5 -25 10 -25 6 0 10 11 10 25 0 14 -4 25 -10 25
-5 0 -10 -11 -10 -25z"/>
<path d="M10735 7210 c-3 -5 -1 -10 4 -10 6 0 11 5 11 10 0 6 -2 10 -4 10 -3
0 -8 -4 -11 -10z"/>
<path d="M11470 7190 c0 -32 14 -40 24 -15 6 18 -2 45 -15 45 -5 0 -9 -13 -9
-30z"/>
<path d="M11610 7210 c0 -5 5 -10 10 -10 6 0 10 5 10 10 0 6 -4 10 -10 10 -5
0 -10 -4 -10 -10z"/>
<path d="M12604 7206 c-8 -21 3 -49 16 -41 5 3 10 15 10 25 0 25 -18 36 -26
16z"/>
<path d="M2138 7119 c-22 -13 -24 -81 -3 -99 41 -34 83 36 51 85 -18 28 -23
29 -48 14z"/>
<path d="M2718 7119 c-22 -13 -24 -81 -3 -99 41 -34 83 36 51 85 -18 28 -23
29 -48 14z"/>
<path d="M10564 3852 c-29 -19 -45 -99 -26 -128 12 -18 48 -25 76 -15 24 10
26 15 26 70 0 49 -4 62 -19 71 -23 12 -42 13 -57 2z"/>
<path d="M4522 3858 c-26 -26 -13 -38 43 -38 38 0 55 4 55 13 0 22 -22 37 -55
37 -17 0 -36 -5 -43 -12z"/>
<path d="M5772 3858 c-26 -26 -13 -38 43 -38 38 0 55 4 55 13 0 22 -22 37 -55
37 -17 0 -36 -5 -43 -12z"/>
<path d="M7012 3858 c-26 -26 -13 -38 43 -38 38 0 55 4 55 13 0 22 -22 37 -55
37 -17 0 -36 -5 -43 -12z"/>
<path d="M8247 3743 c-14 -13 -7 -43 12 -52 31 -17 81 5 81 35 0 22 -4 24 -43
24 -24 0 -47 -3 -50 -7z"/>
<path d="M9535 3846 c-14 -10 -19 -26 -19 -65 0 -56 6 -66 46 -76 38 -10 68
23 68 75 0 65 -50 99 -95 66z"/>
<path d="M10962 3858 c-26 -26 -13 -38 43 -38 38 0 55 4 55 13 0 22 -22 37
-55 37 -17 0 -36 -5 -43 -12z"/>
<path d="M12216 3848 l-17 -23 57 -3 c31 -2 59 0 62 3 14 14 -17 40 -51 43
-27 2 -39 -2 -51 -20z"/>
</g>
</svg>
